<?xml version="1.0" standalone="no"?>

<svg version="1.0" xmlns="http://www.w3.org/2000/svg"
 width="1831.000000pt" height="997.000000pt" viewBox="0 0 1831.000000 997.000000"
 preserveAspectRatio="xMidYMid meet">

<g transform="translate(0.000000,997.000000) scale(0.100000,-0.100000)"
fill="#000000" stroke="none">
<path d="M6010 9195 c-745 -425 -1355 -778 -1355 -784 0 -6 774 -830 1720
-1831 946 -1002 1721 -1824 1722 -1828 2 -7 -4170 -2534 -4194 -2540 -7 -2
-463 200 -1012 448 -550 249 -1006 450 -1014 448 -7 -1 -430 -244 -940 -538
-699 -404 -923 -538 -914 -546 7 -6 637 -438 1402 -959 l1390 -948 1170 -54
c1048 -48 1173 -52 1202 -39 36 17 12253 6738 12354 6797 364 211 637 589 729
1008 94 426 2 875 -253 1238 -79 113 -247 281 -360 360 -182 128 -425 230
-642 269 -151 27 -405 25 -552 -4 -136 -27 -286 -78 -403 -137 -47 -24 -1012
-604 -2144 -1289 l-2058 -1245 -111 73 c-62 40 -1072 703 -2245 1474 -1173
771 -2133 1402 -2135 1401 -1 0 -612 -349 -1357 -774z"/>
</g>
</svg>
